<svg xmlns="http://www.w3.org/2000/svg" xmlns:xlink="http://www.w3.org/1999/xlink" viewBox="0 0 487 487"><defs><style>.cls-1{fill:none;}.cls-2{fill:#102a3d;}.cls-3{fill:#2f7fb8;}.cls-4{fill:#20557b;}.cls-5{fill:#3fa9f5;}.cls-6{fill:#fff;}</style><symbol id="New_Symbol" data-name="New Symbol" viewBox="0 0 394.18 394.18"><path class="cls-1" d="M293.12,25c-4.62-2.58-9.37-5-14.26-7.21Q272.45,14.9,266,12.46a111.67,111.67,0,0,1,14,5.39A113,113,0,0,1,293.12,25Z"/><path class="cls-2" d="M261.55,382.72c-8.18,2.73-18.73,6.23-27.22,7.88q-7.08,1.35-14.25,2.21a195.86,195.86,0,0,1-104.76-16.45c-1.23-.56-2.46-1.14-3.68-1.73a75.88,75.88,0,0,1,59-118.23,74.87,74.87,0,0,1,15.15.73A76.1,76.1,0,0,1,206,263.18l.29.13a75.81,75.81,0,0,1,43,56.4,74.07,74.07,0,0,1,.94,16.52,209.53,209.53,0,0,1-14.86,17.2q3.62,5.74,7.65,11.2C248,371.43,255.65,376.6,261.55,382.72Z"/><path class="cls-3" d="M199.31,226.41a89.64,89.64,0,0,0-28.71,30,75.87,75.87,0,0,0-59,118.23C15.23,328.28-26.78,213.09,17.81,115.32a196.67,196.67,0,0,1,129-108.75q2.9-.77,5.79-1.43A196.15,196.15,0,0,1,266,12.46a112,112,0,0,0-126.31,169.1c1.89,2.86,3.93,5.65,6.09,8.33a0,0,0,0,1,0,0,112.61,112.61,0,0,0,53.57,36.51Z"/><path class="cls-4" d="M335.22,300.87a161.76,161.76,0,0,1-27,3.68,3.43,3.43,0,0,1-1.77-.4q-4.54-2.44-8.95-5-7.94-4.62-15.5-9.68a3.32,3.32,0,0,0-4.89,1.43c-.62,1.43-1.27,2.86-1.93,4.28-1.1,2.39-2.23,4.74-3.43,7.07-2.47,4.89-5.13,9.66-7.92,14.27q-3.66,6-7.66,11.72c-3.74,5.34.9-.65-6.85,9.22q-5.44,7-11.42,13.36a4.74,4.74,0,0,0-.46,5.82c1.8,2.72,3.67,5.41,5.6,8q5.31,7.22,11.32,14c1.37,1.53,8.94,4.11,8.94,4.11s-9.78,3.17-11.15,3.57q-4.29,1.24-8.64,2.31a4.73,4.73,0,0,1-4.08-.93q-3.71-3-7.24-6.22-6.83-6.12-13.07-12.8c-.73-.78-1.46-1.57-2.17-2.35q-3.88-4.29-7.54-8.78A4.69,4.69,0,0,1,210,351a215.36,215.36,0,0,0,15.62-15.07c2.42-2.6,4.79-5.25,7.09-8,2-2.37,4-4.78,5.85-7.24.78-1,1.56-2,2.32-3.06,2.48-3.32,3.47-16.64-1.51-24.85a75.29,75.29,0,0,0-33-29.48l-.29-.14a75.93,75.93,0,0,0-20.28-6.05,74,74,0,0,0-9.14-.81c-2.57-.07-10.05.37-12.06.64a75.88,75.88,0,0,0-54,116.11A72.4,72.4,0,0,1,138.18,252c58.92-19.31,23.91-17.54-4-51a119.81,119.81,0,0,1,42-185.92c2.93-1.35,5.91-2.58,8.94-3.66a119.67,119.67,0,0,1,33.27-7A117.89,117.89,0,0,1,242,5.19h0a197.41,197.41,0,0,1,23.88,7.23A111.55,111.55,0,0,0,209.58,10a112.76,112.76,0,0,0-18.28,5.57c-2.59,1-5.15,2.17-7.66,3.41A111.72,111.72,0,0,0,145.9,49a112.21,112.21,0,0,0-6.27,132.58q2.85,4.3,6.11,8.35a110.28,110.28,0,0,0,17.06,17,112,112,0,0,0,23.13,14.31c4.4,2,13.93,5.36,14.88,5.64q3,.91,6.12,1.65c3.13.76,6.28,1.37,9.45,1.85a111.79,111.79,0,0,0,37-.68,3.37,3.37,0,0,1,3.56,1.66,120.27,120.27,0,0,0,54.6,50.46h0a3.32,3.32,0,0,0,4-1q2.49-3.24,4.74-6.74h0a144.17,144.17,0,0,1-16.27-34.3,3.33,3.33,0,0,1,5.44-3.45,90.13,90.13,0,0,1,27.63,54c.25,1.83.43,3.65.55,5.49h0q.06.82.09,1.65A3.3,3.3,0,0,1,335.22,300.87Z"/><path class="cls-5" d="M376.37,278.85q-2.1,4.59-4.39,9c-.86,1.66-1.73,3.3-2.64,4.92a194.26,194.26,0,0,1-12.42,19.61q-4,5.5-8.25,10.66a194.57,194.57,0,0,1-22.34,22.84h0a197.57,197.57,0,0,1-64.94,37.45,3.33,3.33,0,0,1-3.49-.86A186.68,186.68,0,0,1,243,364.63q-3.25-4.41-6.24-9a3.31,3.31,0,0,1,.39-4.08q6.85-7.31,13.06-15.32a212.35,212.35,0,0,0,13.57-19.73q4.2-6.94,7.92-14.28c1.19-2.32,2.33-4.68,3.44-7.07.65-1.42,3.91-11.57,4.53-13a3.32,3.32,0,0,1,4.9-1.42c14,9.34,34,23.84,50.61,20.13a3.29,3.29,0,0,0,2.57-3.38c0-.55-.06-1.1-.1-1.64h0c-.12-1.84-.3-3.66-.55-5.48a90,90,0,0,0-27.63-54.05,3.33,3.33,0,0,0-5.44,3.45c3.88,12.07,21.5,39.53,21.12,44.45-.35,4.67-10.2-.8-13.61-2.38h0A120.33,120.33,0,0,1,257,231.35a3.36,3.36,0,0,0-3.56-1.66,111.26,111.26,0,0,1-37,.68c-3.16-.48-6.32-1.09-9.46-1.85-2.54-.6-5.08-1.31-7.61-2.11a112.61,112.61,0,0,1-53.57-36.51,0,0,0,0,0,0,0c-2.16-2.68-4.2-5.47-6.09-8.33A112.06,112.06,0,0,1,265.83,12.42l.24.08q6.44,2.41,12.79,5.31c4.89,2.24,9.64,4.63,14.26,7.21a195.54,195.54,0,0,1,40.52,30q5.76,5.53,11,11.49,5.94,6.72,11.24,13.94A197,197,0,0,1,376.37,278.85Z"/><path class="cls-2" d="M329.78,342.89q-5.49,5-11.34,9.56L303.9,333.56a7.41,7.41,0,0,1,11.75-9Z"/><path class="cls-2" d="M291.05,370.39q-6.63,3.58-13.56,6.69l-10.68-13.89a7.41,7.41,0,1,1,11.74-9Z"/><path class="cls-2" d="M311.54,357.59q-6,4.32-12.42,8.17l-13.71-17.82a7.41,7.41,0,0,1,11.75-9Z"/><ellipse class="cls-2" cx="320.94" cy="191.49" rx="15.69" ry="24.41" transform="translate(-25.49 51.28) rotate(-8.79)"/><circle class="cls-6" cx="322.51" cy="182.46" r="8.28"/></symbol></defs><g id="Layer_2" data-name="Layer 2"><g id="Layer_1-2" data-name="Layer 1"><circle class="cls-2" cx="243.5" cy="243.5" r="243.5"/><use width="394.18" height="394.18" transform="translate(10.64 10.66) scale(1.18)" xlink:href="#New_Symbol"/></g></g></svg>