<svg id="Layer_1" data-name="Layer 1" xmlns="http://www.w3.org/2000/svg" viewBox="0 0 300 200"><defs><style>.cls-1{fill:#3fa9f5;fill-rule:evenodd;}</style></defs><path class="cls-1" d="M276.84,185.71H165.93a6.53,6.53,0,0,1-6.52-6.53V159.61H130.14v6.47h21.19a1.66,1.66,0,0,1,1.66,1.66V171a1.66,1.66,0,0,1-1.66,1.66H102.4a1.65,1.65,0,0,1-1.65-1.66v-3.26a1.65,1.65,0,0,1,1.65-1.66h21.23v-6.47H22.43a6.52,6.52,0,0,1-6.53-6.52V22.52A6.52,6.52,0,0,1,22.43,16H231.18a6.52,6.52,0,0,1,6.52,6.52V51.88h39.14a6.52,6.52,0,0,1,6.52,6.52V179.18A6.53,6.53,0,0,1,276.84,185.71Zm-110.77-6.59h45.61V94.29H166.07ZM231.25,22.54H22.56V153H159.41V94.28a6.53,6.53,0,0,1,6.52-6.53H185.5V58.4A6.52,6.52,0,0,1,192,51.88h39.23V22.54Zm45.67,35.88H192.16V87.76h19.45a6.52,6.52,0,0,1,6.52,6.52v84.84h58.79ZM232.86,166.08h3.27a1.66,1.66,0,0,1,1.66,1.66V171a1.66,1.66,0,0,1-1.66,1.66h-3.27a1.65,1.65,0,0,1-1.65-1.66v-3.26A1.65,1.65,0,0,1,232.86,166.08Zm-42.39,6.58H187.2a1.65,1.65,0,0,1-1.65-1.66v-3.26a1.65,1.65,0,0,1,1.65-1.66h3.27a1.65,1.65,0,0,1,1.65,1.66V171A1.66,1.66,0,0,1,190.47,172.66Z"/></svg>