<svg xmlns="http://www.w3.org/2000/svg" viewBox="0 0 487 487"><defs><style>.cls-1{fill:none;}.cls-2{fill:#fff;}</style></defs><g id="Layer_2" data-name="Layer 2"><g id="Layer_1-2" data-name="Layer 1"><circle class="cls-1" cx="243.5" cy="243.5" r="243.5"/><path class="cls-2" d="M410.88,363.16c-8.94,13.54-32.58-1.59-45.44-8.48-16-7.85-22.1-22-26.85.6-.34,1.23-.71,2.43-1.15,3.59-9.25,19.28-15.81,31.25-29.41,49.06q-7.32,9.6-15.55,18.43c-5.17,4.59,2.32,9.47,4.44,13.75,6.56,8.65,12.67,18.87,22,25a232.36,232.36,0,0,1-22.52,6.41c-8.29-6.59-16.35-14.12-24.1-21.5-5.22-6.15-15.53-13.7-14.08-22.11,13.64-13.62,30.08-26.46,38.75-44.05a26.3,26.3,0,0,0,1.65-7.59c.82-19.24-15.39-33.84-29.06-45.07-30.61-24-75.72-21.78-105.88,1.77h0c-1.17.88-2.32,1.78-3.45,2.73h0c-35.4,27.73-42.62,79.89-19.8,117.93l-1.5-.74c-39.83-39.53-26.23-117.36,25.4-140,72.59-24.41,50.1-18.69,5.29-64C111.91,183.93,133.64,78,207.05,34.8h0c31.33-19.12,69.76-24,105.3-15A234.31,234.31,0,0,1,473.91,202.44C455.55,106.2,368,8.92,265.89,21.2c-26.75,4.48-48.92,15.52-70,34.17h0a132.88,132.88,0,0,0-15.8,17.72h0c-36.65,48.16-33.77,118.05,3.21,162.57h0a128.51,128.51,0,0,0,12.54,13.54s0,0,0,0c14,13.37,33.27,24.11,51.31,29.8a130,130,0,0,0,61.34,4.16c2-.42,4.42-.85,6,.77,3.74,5.91,7.24,12.09,11.64,17.6v0h0a142.42,142.42,0,0,0,49.71,41.11l0,0c36.23,21.09,12.1-13.41,4.62-27.28-2.65-4.81-18.14-30.57-3.14-24.78C398.8,311.36,409.1,335,410.88,363.16Z"/><ellipse class="cls-2" cx="390.93" cy="237.56" rx="18.6" ry="28.93" transform="translate(-31.71 62.51) rotate(-8.79)"/></g></g></svg>