<svg xmlns="http://www.w3.org/2000/svg" xmlns:xlink="http://www.w3.org/1999/xlink" viewBox="0 0 370.64 412.09"><defs><style>.cls-1{fill:#222;}.cls-18,.cls-2{fill:#fff;}.cls-2{fill-opacity:0.13;}.cls-3{fill:blue;fill-opacity:0.27;}.cls-4{fill-opacity:0.87;fill:url(#linear-gradient);}.cls-23,.cls-4{fill-rule:evenodd;}.cls-5{opacity:0.58;}.cls-10,.cls-11,.cls-12,.cls-13,.cls-14,.cls-15,.cls-16,.cls-6,.cls-7,.cls-8,.cls-9{fill:none;stroke:#fff;stroke-miterlimit:10;}.cls-6{stroke-linecap:round;stroke-width:6px;}.cls-10,.cls-11,.cls-12,.cls-13,.cls-14,.cls-15,.cls-16,.cls-7,.cls-8,.cls-9{stroke-width:3px;}.cls-8{stroke-dasharray:8.93 1.99;}.cls-9{stroke-dasharray:8.7 1.93;}.cls-10{stroke-dasharray:8.8 1.96;}.cls-11{stroke-dasharray:9.11 2.02;}.cls-12{stroke-dasharray:9.12 2.03;}.cls-13{stroke-dasharray:8.89 1.98;}.cls-14{stroke-dasharray:9.13 2.03;}.cls-15{stroke-dasharray:9.28 2.06;}.cls-16{stroke-dasharray:9 2;}.cls-17{fill:#3fa9f5;}.cls-19{fill:#368bd6;}.cls-20{fill:#f1680d;}.cls-21{fill:#155671;}.cls-22{fill:#fba457;}.cls-23{fill:#0071bc;}</style><linearGradient id="linear-gradient" x1="162.84" y1="160.35" x2="287.14" y2="391.76" gradientUnits="userSpaceOnUse"><stop offset="0" stop-color="#3fa9f5"/><stop offset="1" stop-color="#102a3d"/></linearGradient></defs><g id="Layer_3" data-name="Layer 3"><rect id="rect11633" class="cls-1" x="123.85" y="76.66" width="150.11" height="271.21" rx="15.66"/><rect id="rect11061" class="cls-2" x="191.08" y="92.32" width="15.66" height="3.52" rx="0.98"/><circle id="path11063" class="cls-3" cx="213.68" cy="91.58" r="2.94"/><circle id="path11069" class="cls-3" cx="182.03" cy="91.14" r="3.42"/><rect id="rect11705" class="cls-2" x="194.01" y="83.31" width="9.79" height="4.89" rx="1.96"/><rect id="rect11707" class="cls-2" x="177.38" y="337.3" width="43.05" height="2.94" rx="0.98"/><path id="path11722" class="cls-4" d="M166.24,152.61a9.76,9.76,0,0,0-9.79,9.78V390.55a5.86,5.86,0,0,0,5.87,5.87H287.57a5.85,5.85,0,0,0,5.87-5.87V162.39a9.76,9.76,0,0,0-9.78-9.78h-27.4a6.83,6.83,0,0,0-6.85,6.85v.78a8.79,8.79,0,0,1-8.81,8.81H209.29a8.79,8.79,0,0,1-8.81-8.81v-.78a6.83,6.83,0,0,0-6.85-6.85H166.24Z" transform="translate(-26.04 -68.51)"/></g><g id="Layer_4" data-name="Layer 4" class="cls-5"><polyline class="cls-6" points="62.96 273.49 198.96 212.49 29.04 135.6"/><polyline class="cls-6" points="315.03 128.04 198.96 212.49 232.96 29.49"/><polyline class="cls-6" points="341.96 271.49 196.26 211.27 248.96 383.49"/><line class="cls-7" x1="319.7" y1="125.19" x2="318.51" y2="129.53"/><line class="cls-8" x1="317.98" y1="131.44" x2="248.54" y2="383.07"/><line class="cls-7" x1="248.27" y1="384.03" x2="247.08" y2="388.37"/><line class="cls-7" x1="238.96" y1="29.49" x2="241.83" y2="32.96"/><line class="cls-9" x1="243.06" y1="34.45" x2="317.05" y2="123.83"/><line class="cls-7" x1="317.66" y1="124.58" x2="320.53" y2="128.04"/><line class="cls-7" x1="25.96" y1="139.49" x2="29.89" y2="137.3"/><line class="cls-10" x1="31.6" y1="136.35" x2="228.17" y2="27.15"/><line class="cls-7" x1="229.02" y1="26.67" x2="232.96" y2="24.49"/><line class="cls-7" x1="25.96" y1="135.49" x2="26.95" y2="139.88"/><line class="cls-11" x1="27.4" y1="141.85" x2="56.74" y2="271.11"/><line class="cls-7" x1="56.96" y1="272.1" x2="57.96" y2="276.49"/><line class="cls-7" x1="30.96" y1="135.49" x2="33.9" y2="138.9"/><line class="cls-12" x1="35.22" y1="140.43" x2="245.65" y2="384.32"/><line class="cls-7" x1="246.32" y1="385.08" x2="249.26" y2="388.49"/><line class="cls-7" x1="62.96" y1="276.49" x2="66.81" y2="278.81"/><line class="cls-13" x1="68.51" y1="279.83" x2="244.55" y2="385.66"/><line class="cls-7" x1="245.4" y1="386.17" x2="249.26" y2="388.49"/><line class="cls-7" x1="60.57" y1="265.67" x2="63.19" y2="262"/><line class="cls-14" x1="64.36" y1="260.35" x2="225.76" y2="33.98"/><line class="cls-7" x1="226.35" y1="33.15" x2="228.96" y2="29.49"/><line class="cls-7" x1="311.96" y1="124.49" x2="312.89" y2="128.89"/><polyline class="cls-15" points="313.32 130.91 342.51 268 343.81 274.08"/><line class="cls-7" x1="344.02" y1="275.09" x2="344.96" y2="279.49"/><line class="cls-16" x1="339.24" y1="271.99" x2="244.56" y2="383.04"/></g><g id="Layer_1" data-name="Layer 1"><circle class="cls-17" cx="198.96" cy="212.27" r="47.65"/><path class="cls-18" d="M225,320.15A39.39,39.39,0,0,1,205.51,315c0-.2,0-.41,0-.61a17.22,17.22,0,0,1,31.82-9.12.75.75,0,0,0-.07.12,30.41,30.41,0,0,1-5.58,6.75l-1.57,1.41,1,1.88c.68,1.31,1.42,2.6,2.23,3.85A39.62,39.62,0,0,1,225,320.15Z" transform="translate(-26.04 -68.51)"/><path class="cls-18" d="M201.56,312.41a39.4,39.4,0,0,1,13.95-69.87,27.83,27.83,0,0,0,26.05,48.14,30.19,30.19,0,0,1-2.2,10.5,21.24,21.24,0,0,0-37.8,11.23Z" transform="translate(-26.04 -68.51)"/><path class="cls-18" d="M237.39,318.15a39.35,39.35,0,0,1-2.29-3.71,34,34,0,0,0,10.5-24.6c0-1.11,0-2.22-.15-3.31l-.18-1.86-1.67.84a23.82,23.82,0,1,1-17.55-44.1,39.37,39.37,0,0,1,30.44,63A39.68,39.68,0,0,1,237.39,318.15Z" transform="translate(-26.04 -68.51)"/><circle cx="316.41" cy="128.04" r="29.04"/><path class="cls-19" d="M331.68,175.33a6.54,6.54,0,0,0-6.65,6.42c0,9.77,0,20.31,0,29.61a6.65,6.65,0,0,0,13.3,0v-5.43h3.51l6.42,8.81a6.2,6.2,0,0,0,5,2.51,6.29,6.29,0,0,0,3.51-1.07,5.75,5.75,0,0,0,1.49-8.2l-4.1-5.64a15.09,15.09,0,0,0,5.7-11.71c0-8.44-7.14-15.3-15.88-15.3Zm2.51,1.07H344c8.19,0,14.82,6.39,14.82,14.23a14,14,0,0,1-5.27,10.85l-2.92-4a9.2,9.2,0,0,0,3.13-6.85,9.6,9.6,0,0,0-9.76-9.42h-6.22a5.67,5.67,0,0,0-1.06-2.84,6,6,0,0,0-2.53-2Zm3.59,5.88H344a8.52,8.52,0,0,1,8.7,8.35,8.12,8.12,0,0,1-2.69,6l-.37-.51a6.11,6.11,0,0,0-3.89-2.41,3.5,3.5,0,0,0,1.89-3.07A3.6,3.6,0,0,0,344,187.1h-6.73v7.06h4.79a5.79,5.79,0,0,0-3.5,4.82h-6.35v-11.4a6.33,6.33,0,0,0,3-1,5.82,5.82,0,0,0,2.52-3.8c0-.16,0-.33,0-.49Zm-11.69,1.82a5.81,5.81,0,0,0,.6,1,6.11,6.11,0,0,0,4.46,2.46v23.78a.53.53,0,1,0,1.06,0V200.05h6.35a5.74,5.74,0,0,0,1.05,2.83l1.46,2h-3.8v6.49a5.6,5.6,0,0,1-11.18,0V184.1Zm12.24,4.06H344a2.47,2.47,0,1,1,.18,4.93h-5.85Z" transform="translate(-26.04 -68.51)"/><circle class="cls-18" cx="249.26" cy="383.04" r="29.04"/><path class="cls-20" d="M265.13,430.26v21.29l16-10.65Zm0,21.29v21.3l16-10.65Zm16-10.65v21.3l16-10.65Z" transform="translate(-26.04 -68.51)"/><circle class="cls-21" cx="29.04" cy="135.28" r="29.04"/><path class="cls-18" d="M73.62,207.92c-.57,2.93-5.1,6.14-10.3,6.76a49.6,49.6,0,0,1-8.23.49,48,48,0,0,1-8.33-1.11,10.64,10.64,0,0,0,.08,1.29c.61,4.59,4.56,4.87,8.3,5a23.85,23.85,0,0,0,7.15-.94l.15,3.42a18.94,18.94,0,0,1-7.35,1.68,30.63,30.63,0,0,1-9.57-1.06c-8.14-2.15-9.54-10.83-9.76-19.64-.06-2.62,0-5.08,0-7.14,0-9,5.9-11.65,5.9-11.65,3-1.36,8.08-1.94,13.38-2h.13c5.31,0,10.42.62,13.39,2,0,0,5.91,2.64,5.91,11.65A68.79,68.79,0,0,1,73.62,207.92Zm-6.13-10.55a7.68,7.68,0,0,0-1.71-5.31,6,6,0,0,0-4.63-2,5.57,5.57,0,0,0-5,2.55l-1.08,1.81L54,192.62a5.57,5.57,0,0,0-5-2.55,6,6,0,0,0-4.63,2,7.81,7.81,0,0,0-1.71,5.31v10.9H47V197.69c0-2.23.94-3.37,2.82-3.37,2.08,0,3.12,1.35,3.12,4v5.8h4.29v-5.8c0-2.65,1-4,3.12-4,1.88,0,2.82,1.14,2.82,3.37v10.58h4.32v-10.9Z" transform="translate(-26.04 -68.51)"/><circle cx="233.04" cy="29.04" r="29.04"/><path class="cls-18" d="M265.05,115.73l-4.27-6c-1.14-1.59-2.06-2.84-2.11-2.84s-1.85,2.41-4.24,5.71c-2.29,3.13-4.18,5.7-4.2,5.7s-8.24-5.76-8.26-5.82,1.84-2.74,4.11-6,4.12-6,4.12-6.09-.73-.36-6.5-2.28l-6.58-2.19a43.4,43.4,0,0,1,1.45-4.85c.84-2.65,1.55-4.84,1.57-4.87s3.13,1,6.9,2.21,6.9,2.26,6.94,2.26.08-.06.09-.13.05-3.28.08-7.14.06-7,.09-7.08a44.43,44.43,0,0,1,5-.07c2.72,0,5,0,5,0s.12,2.15.25,6.91c.2,7.82.21,7.93.33,7.93s3-1,6.65-2.23,6.58-2.2,6.6-2.18,3,9.72,3,9.75-3,1.06-6.69,2.3c-5,1.7-6.66,2.27-6.67,2.35s1.72,2.64,3.92,5.86,3.94,5.79,3.93,5.82-8.14,6-8.2,6-1.06-1.4-2.29-3.12Z" transform="translate(-26.04 -68.51)"/><circle class="cls-22" cx="63.36" cy="273.04" r="29.04"/><path d="M79.22,319.89a3.37,3.37,0,0,0-3.37,3.38v39.94H86.62V319.89Zm12.84,0v21.66h7.52a3.37,3.37,0,0,0,3.38-3.37V319.89Zm0,32.56v10.76h7.52a3.37,3.37,0,0,0,3.38-3.37v-7.39Z" transform="translate(-26.04 -68.51)"/><circle class="cls-18" cx="341.6" cy="271.04" r="29.04"/><path class="cls-23" d="M367.64,363.76a24.21,24.21,0,1,1,24.2-24.21A24.2,24.2,0,0,1,367.64,363.76Zm-1.92-18.92h4.44a7.38,7.38,0,1,0,0-14.75h-6.41a4.32,4.32,0,0,0-4.37,4.26V350.9Z" transform="translate(-26.04 -68.51)"/></g></svg>