<svg xmlns="http://www.w3.org/2000/svg" viewBox="0 0 425.97 425.95"><defs>
  <style>.cls-1{fill:#286A99;}</style>
</defs><g id="Layer_2" data-name="Layer 2"><g id="Layer_1-2" data-name="Layer 1"><path class="cls-1" d="M212.94,426A213.23,213.23,0,0,1,107.5,398.09v-3.3a93.15,93.15,0,0,1,172.13-49.34,4.18,4.18,0,0,0-.37.65,164.72,164.72,0,0,1-30.19,36.52l-8.49,7.62L246,400.41c3.68,7.09,7.68,14.07,12.06,20.83A214.41,214.41,0,0,1,212.94,426Z"/><path class="cls-1" d="M86.14,384.08C-8.39,313.93-28.15,180.43,42,85.91A213.15,213.15,0,0,1,161.6,6.11,150.55,150.55,0,0,0,302.52,266.53a163.59,163.59,0,0,1-11.9,56.8A114.89,114.89,0,0,0,86.14,384.08Z"/><path class="cls-1" d="M280,415.13a214.28,214.28,0,0,1-12.39-20.07A183.94,183.94,0,0,0,324.37,262a131.6,131.6,0,0,0-.81-17.9l-1-10.06-9,4.54A128.85,128.85,0,1,1,218.62,0C336.2,3.11,429,100.94,425.89,218.52A213.14,213.14,0,0,1,280,415.13Z"/></g></g></svg>