<svg id="Layer_1" data-name="Layer 1" xmlns="http://www.w3.org/2000/svg" viewBox="0 0 300 200"><defs><style>.cls-1{fill:none;stroke:#3fa9f5;stroke-miterlimit:10;stroke-width:8px;}.cls-2{fill:#3fa9f5;}.cls-3,.cls-9{fill:#fff;}.cls-4{fill:#368bd6;}.cls-5{fill:#f1680d;}.cls-6{fill:#155671;}.cls-7{fill:#fba457;}.cls-8{fill:#0071bc;}.cls-9{fill-rule:evenodd;}</style></defs><line class="cls-1" x1="45" y1="78" x2="155" y2="103"/><line class="cls-1" x1="155" y1="103" x2="215" y2="170"/><polyline class="cls-1" points="254 116 154.65 105.86 241 34"/><polyline class="cls-1" points="99 29 155 103 64 166"/><circle class="cls-2" cx="154.65" cy="100" r="38.6"/><path class="cls-3" d="M154.65,131.89a31.81,31.81,0,0,1-15.79-4.18c0-.16,0-.33,0-.49a13.95,13.95,0,0,1,25.78-7.39l-.06.1a24.17,24.17,0,0,1-4.52,5.46l-1.26,1.15.77,1.52c.55,1.06,1.15,2.11,1.81,3.12A32.15,32.15,0,0,1,154.65,131.89Z"/><path class="cls-3" d="M135.66,125.62A31.9,31.9,0,0,1,147,69a22.53,22.53,0,0,0,10.92,39.86,23,23,0,0,0,3.22.23,22.37,22.37,0,0,0,7-1.1,24.53,24.53,0,0,1-1.79,8.51,17.21,17.21,0,0,0-30.62,9.09Z"/><path class="cls-3" d="M164.69,130.28a34.44,34.44,0,0,1-1.86-3,27.5,27.5,0,0,0,8.51-19.92,26.43,26.43,0,0,0-.13-2.68l-.14-1.51-1.35.68a19.15,19.15,0,0,1-8.61,2,19.29,19.29,0,0,1-5.61-37.74,31.89,31.89,0,0,1,24.66,51A32.16,32.16,0,0,1,164.69,130.28Z"/><path class="cls-4" d="M122.26,32a23.87,23.87,0,0,1-.33,4,23.58,23.58,0,1,1,.33-4Z"/><path class="cls-3" d="M90,14.81A5.29,5.29,0,0,0,84.63,20c0,7.92,0,16.45,0,24A5.39,5.39,0,0,0,95.4,44V39.6h2.85l5.2,7.14a5,5,0,0,0,4.06,2,5.11,5.11,0,0,0,2.84-.86,4.65,4.65,0,0,0,1.21-6.64l-3.32-4.57a12.22,12.22,0,0,0,4.61-9.49A12.65,12.65,0,0,0,100,14.81Zm2,.86H100A11.79,11.79,0,0,1,112,27.2,11.34,11.34,0,0,1,107.73,36l-2.37-3.24a7.44,7.44,0,0,0,2.54-5.55A7.78,7.78,0,0,0,100,19.58H95a4.54,4.54,0,0,0-.85-2.3,4.89,4.89,0,0,0-2-1.61ZM95,20.44h5A6.9,6.9,0,0,1,107,27.2a6.64,6.64,0,0,1-2.18,4.86l-.3-.42a5,5,0,0,0-3.15-1.95,2.84,2.84,0,0,0,1.53-2.49,2.91,2.91,0,0,0-3-2.86H94.54v5.72h3.88A4.72,4.72,0,0,0,95.58,34H90.44V24.74a5.08,5.08,0,0,0,2.44-.83,4.68,4.68,0,0,0,2-3.07,2.8,2.8,0,0,0,0-.4Zm-9.46,1.47a4.59,4.59,0,0,0,.48.83,5,5,0,0,0,3.62,2V44a.43.43,0,1,0,.85,0V34.83h5.15a4.62,4.62,0,0,0,.85,2.28l1.18,1.62H94.54V44a4.53,4.53,0,0,1-9.05,0c0-7.35,0-15.33,0-22.09ZM95.4,25.2H100a2,2,0,1,1,.15,4H95.4Z"/><circle class="cls-5" cx="211.52" cy="168" r="23.52"/><path class="cls-3" d="M203.29,150.75V168l12.94-8.63Zm0,17.25v17.25l12.94-8.62Zm12.94-8.63v17.26L229.17,168Z"/><circle class="cls-6" cx="44.87" cy="74" r="23.52"/><path class="cls-3" d="M59.89,77.35c-.47,2.37-4.13,5-8.35,5.47a39.55,39.55,0,0,1-6.66.39,38.73,38.73,0,0,1-6.75-.9,8.74,8.74,0,0,0,.06,1c.5,3.72,3.7,3.94,6.73,4a19.44,19.44,0,0,0,5.78-.76l.13,2.77a15.34,15.34,0,0,1-5.95,1.36,24.64,24.64,0,0,1-7.76-.86c-6.59-1.74-7.72-8.77-7.9-15.91-.06-2.12,0-4.11,0-5.78,0-7.3,4.78-9.44,4.78-9.44,2.41-1.1,6.54-1.57,10.84-1.6h.11c4.3,0,8.43.5,10.84,1.6,0,0,4.78,2.14,4.78,9.44A56.3,56.3,0,0,1,59.89,77.35Zm-5-8.56a6.23,6.23,0,0,0-1.38-4.3,4.8,4.8,0,0,0-3.74-1.6,4.51,4.51,0,0,0-4,2.06l-.87,1.46L44,65a4.5,4.5,0,0,0-4-2.06,4.8,4.8,0,0,0-3.75,1.6,6.35,6.35,0,0,0-1.38,4.3v8.84h3.49V69.05c0-1.8.77-2.72,2.29-2.72,1.68,0,2.52,1.09,2.52,3.24v4.69h3.48V69.57c0-2.15.84-3.24,2.52-3.24,1.52,0,2.29.92,2.29,2.72v8.58h3.49V68.79Z"/><circle cx="253.96" cy="115" r="23.52"/><path class="cls-3" d="M258.79,129.72l-3.46-4.82c-.92-1.29-1.67-2.3-1.71-2.3s-1.49,2-3.44,4.62-3.38,4.62-3.4,4.62-6.67-4.67-6.69-4.72,1.49-2.22,3.33-4.88,3.34-4.88,3.34-4.93-.59-.29-5.26-1.85l-5.33-1.78a33.63,33.63,0,0,1,1.17-3.92c.68-2.15,1.25-3.92,1.27-3.94s2.54.78,5.59,1.79l5.62,1.82s.07,0,.08-.1,0-2.66.06-5.79,0-5.7.07-5.73a37.59,37.59,0,0,1,4-.06c2.21,0,4,0,4.06,0s.09,1.74.2,5.6c.16,6.34.17,6.42.27,6.42s2.46-.81,5.38-1.8,5.33-1.79,5.35-1.77,2.45,7.87,2.42,7.9-2.45.86-5.42,1.86c-4.08,1.38-5.39,1.85-5.4,1.9s1.39,2.14,3.18,4.75,3.18,4.69,3.17,4.72-6.58,4.89-6.64,4.89-.86-1.14-1.85-2.53Z"/><circle class="cls-7" cx="238.31" cy="34" r="23.52"/><path class="cls-3" d="M230.06,16.46a2.73,2.73,0,0,0-2.73,2.73V51.54h8.72V16.46Zm10.4,0V34h6.09a2.73,2.73,0,0,0,2.73-2.73V16.46Zm0,26.36v8.72h6.09a2.73,2.73,0,0,0,2.73-2.73v-6Z"/><circle class="cls-8" cx="65.09" cy="161" r="23.52"/><path class="cls-9" d="M63.53,165.28h3.6a6,6,0,1,0,0-11.94H61.94a3.49,3.49,0,0,0-3.54,3.44v13.41Z"/></svg>