<svg id="Layer_1" data-name="Layer 1" xmlns="http://www.w3.org/2000/svg" viewBox="0 0 300 200"><defs><style>.cls-1{fill:#3fa9f5;}</style></defs><path class="cls-1" d="M152.79,12.35a89.33,89.33,0,1,1-89.33,89.32,89.42,89.42,0,0,1,89.33-89.32m0-7a96.22,96.22,0,1,0,96.33,96.32A96.43,96.43,0,0,0,152.79,5.35Z"/><path class="cls-1" d="M152.79,31.46A13.56,13.56,0,1,1,139.23,45a13.7,13.7,0,0,1,13.56-13.56m0-7A20.56,20.56,0,1,0,173.35,45a20.58,20.58,0,0,0-20.56-20.56Z"/><path class="cls-1" d="M192.09,64.89a7,7,0,0,1,2.09,13.79l-29.77,8.95A3.45,3.45,0,0,0,162,91.26c.24,4.85.72,15.26,1.69,19.13C166.1,121.52,179.42,152,179.42,152a7.19,7.19,0,0,1-3.39,9.44,6.7,6.7,0,0,1-9.2-3.39l-14-29.29-13.56,29.05a6.79,6.79,0,0,1-6.29,4.11,6.4,6.4,0,0,1-2.91-.73,7,7,0,0,1-3.38-9.44s13.31-30.5,15.73-41.63c1-3.88,1.45-14.29,1.69-19.13a3.72,3.72,0,0,0-2.42-3.63l-30-8.71a7.2,7.2,0,0,1-4.85-9,7.12,7.12,0,0,1,6.9-4.63,8,8,0,0,1,2.06.27s27.36,8.72,37,8.72,37.52-9,37.52-9a6.74,6.74,0,0,1,1.78-.23m0-7a13.85,13.85,0,0,0-3.58.47l-.17,0-.17.06c-10.37,3.33-29.13,8.62-35.38,8.62s-24.73-5.15-34.91-8.39l-.16,0-.16,0a14.85,14.85,0,0,0-3.87-.51,14.1,14.1,0,0,0-13.54,9.42A13.73,13.73,0,0,0,101,78.17a14.5,14.5,0,0,0,8.54,7.19l.07,0,.06,0L137,93.31c-.24,4.64-.71,12.53-1.36,15.14l0,.1,0,.11c-1.86,8.55-11.63,31.89-15.28,40.26A13.93,13.93,0,0,0,127,167.53a13.44,13.44,0,0,0,6,1.42,13.8,13.8,0,0,0,12.65-8.18l7.28-15.61,7.53,15.7a13.63,13.63,0,0,0,12.72,8.33,13.47,13.47,0,0,0,6-1.46,14.12,14.12,0,0,0,6.64-18.57c-3.64-8.37-13.42-31.71-15.28-40.26l0-.1,0-.11c-.65-2.62-1.12-10.53-1.36-15.16l27-8.12a13.87,13.87,0,0,0,8.35-6.73,14.44,14.44,0,0,0,1.32-10.52,14.26,14.26,0,0,0-13.7-10.27Z"/></svg>