<svg xmlns="http://www.w3.org/2000/svg" viewBox="0 0 466 466"><g id="Layer_2" data-name="Layer 2"><g id="Layer_1-2" data-name="Layer 1"><path d="M233,0C104.32,0,0,104.32,0,233S104.32,466,233,466,466,361.68,466,233,361.68,0,233,0Zm0,447C114.81,447,19,351.19,19,233S114.81,19,233,19s214,95.81,214,214S351.19,447,233,447Z"/><path d="M278.46,415.3a229.11,229.11,0,0,0,18.44,30q-4,1.24-8.16,2.33A238.32,238.32,0,0,1,271.34,419l-2.8-5.47,4.56-4.12A171.22,171.22,0,0,0,304.84,371c.87-1.43,1.72-2.88,2.53-4.34A101,101,0,0,0,118.5,416.45q0,3.78.28,7.5-4.19-2.49-8.25-5.15c0-.78,0-1.57,0-2.35a109,109,0,0,1,201.26-58.07,170.93,170.93,0,0,0,17.74-75.93c0-1.78,0-3.56-.08-5.35a143.69,143.69,0,0,1-53.92,10.35A146.51,146.51,0,0,1,254.8,286c-70.86-10.13-124.3-71.83-124.3-143.53A144.45,144.45,0,0,1,213,11.76q9.41-.81,19-.81c1.6,0,3.19,0,4.78.05a137,137,0,1,0,99.89,254.07q.82,8.58.83,17.38a178.67,178.67,0,0,1-59,132.85Z"/></g></g></svg>