<svg xmlns="http://www.w3.org/2000/svg" viewBox="0 0 466.68 468.81"><g id="Layer_2" data-name="Layer 2"><g id="Layer_1-2" data-name="Layer 1"><path d="M463.1,193.84s0-.05,0-.07C444.73,97.53,357.16.25,255.07,12.53c-26.75,4.48-48.92,15.52-70,34.17h0a132.88,132.88,0,0,0-15.8,17.72h0c-36.65,48.16-33.77,118,3.21,162.57h0A128.51,128.51,0,0,0,185,240.55s0,0,0,0c14,13.37,33.27,24.11,51.31,29.8a130,130,0,0,0,61.34,4.16c2-.42,4.42-.85,6,.77,3.74,5.91,7.24,12.09,11.64,17.6v0h0A142.42,142.42,0,0,0,365,334l.05,0c36.23,21.09,12.1-13.41,4.62-27.28-2.65-4.81-18.14-30.57-3.14-24.78,21.42,20.7,31.72,44.34,33.5,72.5-8.94,13.54-32.58-1.59-45.44-8.48-16-7.85-22.1-22-26.85.6-.34,1.23-.71,2.43-1.15,3.59-9.25,19.28-15.81,31.25-29.41,49.06q-7.32,9.6-15.55,18.43c-5.17,4.59,2.32,9.47,4.44,13.75,6.56,8.65,12.67,18.87,22,25a233.79,233.79,0,0,0,71.27-39.25c.72-.58,1.45-1.19,2.17-1.78A233.8,233.8,0,0,0,462.8,277.47c.08-.41.16-.82.23-1.23a236.59,236.59,0,0,0,.07-82.4Zm-78.57,63.64c-10.15,1.57-20.36-10-22.8-25.75s3.81-29.85,14-31.42,20.35,10,22.8,25.74S394.68,255.91,384.53,257.48Z"/><path d="M287.78,367.58a26.3,26.3,0,0,1-1.65,7.59c-8.67,17.59-25.11,30.43-38.75,44.05-1.45,8.41,8.86,16,14.08,22.11,7.75,7.38,15.81,14.91,24.1,21.5l-.29.07a221.06,221.06,0,0,1-46.55,5.85l-2.11,0a243.55,243.55,0,0,1-66.15-8.32A216.15,216.15,0,0,1,129.57,445h0c-22.82-38-15.6-90.2,19.8-117.93h0c1.13-.95,2.28-1.85,3.45-2.73h0c30.16-23.55,75.27-25.76,105.88-1.77C272.39,333.74,288.6,348.34,287.78,367.58Z"/><path d="M158.76,240.17c44.81,45.32,67.3,39.6-5.29,64-51.63,22.66-65.23,100.49-25.4,140q-4.2-2.13-8.25-4.34c-1-.53-1.93-1.07-2.89-1.62-.24-.12-.49-.26-.73-.41C49,399.71,13.41,341.89,3.17,280.65-11.27,194.43,24.52,101.43,93,47.09,141.09,8.89,205.35-10.22,279.65,5.54l.56.12q10.53,2.26,21.33,5.47c-35.54-9-74-4.12-105.3,15h0C122.82,69.31,101.09,175.26,158.76,240.17Z"/></g></g></svg>