<svg xmlns="http://www.w3.org/2000/svg" viewBox="0 0 444 443.95"><g id="Layer_2" data-name="Layer 2"><g id="Layer_1-2" data-name="Layer 1"><path d="M263.1,398.36l-4.56,4.12,2.8,5.47a238.32,238.32,0,0,0,17.4,28.68,222.67,222.67,0,0,1-170-23.68q-.28-3.72-.28-7.5a101,101,0,0,1,188.87-49.83c-.81,1.46-1.66,2.91-2.53,4.34A171.22,171.22,0,0,1,263.1,398.36Z"/><path d="M319.5,271.45a170.93,170.93,0,0,1-17.74,75.93A109,109,0,0,0,100.5,405.45c0,.78,0,1.57,0,2.35A221.81,221.81,0,0,1,0,222C0,105.75,89.27,10.4,203,.76A144.45,144.45,0,0,0,120.5,131.45c0,71.7,53.44,133.4,124.3,143.53a146.51,146.51,0,0,0,20.7,1.47,143.69,143.69,0,0,0,53.92-10.35C319.47,267.89,319.5,269.67,319.5,271.45Z"/><path d="M444,222c0,100-66.15,184.6-157.1,212.35a229.11,229.11,0,0,1-18.44-30,178.67,178.67,0,0,0,59-132.85q0-8.79-.83-17.38A137,137,0,1,1,226.78,0h0C347.19,2.55,444,100.94,444,222Z"/></g></g></svg>